<svg xmlns="http://www.w3.org/2000/svg" version="1.1" xmlns:xlink="http://www.w3.org/1999/xlink" xmlns:svgjs="http://svgjs.com/svgjs" width="1000" height="1000"><rect width="1000" height="1000" rx="200" ry="200" fill="#81c784"></rect><g transform="matrix(1.0416666666666667,0,0,1.0416666666666667,-5.684341886080802e-14,125)"><svg xmlns="http://www.w3.org/2000/svg" version="1.1" xmlns:xlink="http://www.w3.org/1999/xlink" xmlns:svgjs="http://svgjs.com/svgjs" width="960" height="720"><svg version="1.1" viewBox="0.0 0.0 960.0 720.0" fill="none" stroke="none" stroke-linecap="square" stroke-miterlimit="10" xmlns:xlink="http://www.w3.org/1999/xlink" xmlns="http://www.w3.org/2000/svg"><clipPath id="p.0"><path d="m0 0l960.0 0l0 720.0l-960.0 0l0 -720.0z" clip-rule="nonzero"></path></clipPath><g clip-path="url(#p.0)"><path fill="#000000" fill-opacity="0.0" d="m0 0l960.0 0l0 720.0l-960.0 0z" fill-rule="evenodd"></path><path fill="#6247aa" d="m204.23555 492.71445l0 0c-1.2744904 -62.226807 50.16751 -120.150635 134.9291 -151.93042c84.761536 -31.779785 189.9501 -32.581757 275.90286 -2.103485c85.95276 30.478271 139.59589 87.60089 140.70264 149.82898l-275.77014 1.9543152z" fill-rule="evenodd"></path><path fill="#6247aa" d="m204.21251 344.79877l0 0c0 -62.897003 53.998947 -113.88512 120.61006 -113.88512l0 0c31.987762 0 62.665405 11.998581 85.28418 33.356186c22.618774 21.357605 35.325867 50.324738 35.325867 80.52893l0 0c0 62.897034 -53.998962 113.88513 -120.61005 113.88513l0 0c-66.611115 0 -120.61006 -50.9881 -120.61006 -113.88513z" fill-rule="evenodd"></path><path fill="#6247aa" d="m514.5674 344.79877l0 0c0 -62.897003 53.998962 -113.88512 120.61005 -113.88512l0 0c31.987793 0 62.665405 11.998581 85.28418 33.356186c22.618774 21.357605 35.325867 50.324738 35.325867 80.52893l0 0c0 62.897034 -53.998962 113.88513 -120.61005 113.88513l0 0c-66.611084 0 -120.61005 -50.9881 -120.61005 -113.88513z" fill-rule="evenodd"></path><path fill="#ffffff" d="m239.82983 345.37222l0 0c0 -44.188538 38.017975 -80.01044 84.9155 -80.01044l0 0c22.520996 0 44.119568 8.429626 60.04431 23.43451c15.924744 15.004883 24.871185 35.355835 24.871185 56.575928l0 0c0 44.18857 -38.017975 80.01047 -84.9155 80.01047l0 0c-46.897522 0 -84.9155 -35.8219 -84.9155 -80.01047z" fill-rule="evenodd"></path><path fill="#ffffff" d="m550.26196 344.79877l0 0c0 -44.188538 38.017944 -80.01044 84.91547 -80.01044l0 0c22.520996 0 44.119568 8.429657 60.04431 23.43451c15.924744 15.004883 24.871216 35.355865 24.871216 56.575928l0 0c0 44.18857 -38.018005 80.01047 -84.91553 80.01047l0 0c-46.897522 0 -84.91547 -35.8219 -84.91547 -80.01047z" fill-rule="evenodd"></path><path fill="#81c784" d="m289.65195 361.10947l0 0c0 -26.877502 23.091125 -48.666016 51.5755 -48.666016l0 0c13.67868 0 26.79712 5.127289 36.46942 14.253937c9.672272 9.126648 15.10611 21.505035 15.10611 34.41208l0 0c0 26.877502 -23.091156 48.666016 -51.57553 48.666016l0 0c-28.484375 0 -51.5755 -21.788513 -51.5755 -48.666016z" fill-rule="evenodd"></path><path fill="#81c784" d="m567.6333 361.10947l0 0c0 -26.877502 23.091125 -48.666016 51.5755 -48.666016l0 0c13.678711 0 26.79712 5.127289 36.46942 14.253937c9.672302 9.126648 15.106079 21.505035 15.106079 34.41208l0 0c0 26.877502 -23.091125 48.666016 -51.5755 48.666016l0 0c-28.484375 0 -51.5755 -21.788513 -51.5755 -48.666016z" fill-rule="evenodd"></path><path fill="#000000" fill-opacity="0.0" d="m568.3461 448.90897l0 0c-56.081726 26.043701 -123.70181 25.791382 -182.02054 -0.6791992l84.1026 -161.81738z" fill-rule="evenodd"></path><path fill="#000000" fill-opacity="0.0" d="m568.3461 448.90897l0 0c-56.081726 26.043701 -123.70181 25.791382 -182.02054 -0.6791992" fill-rule="evenodd"></path><path stroke="#81c784" stroke-width="24.0" stroke-linejoin="round" stroke-linecap="butt" d="m568.3461 448.90897l0 0c-56.081726 26.043701 -123.70181 25.791382 -182.02054 -0.6791992" fill-rule="evenodd"></path></g></svg></svg></g></svg>